# Blender v2.80 (sub 41) OBJ File: 'threeJSTest.blend'
# www.blender.org
mtllib threeJSValve.mtl
o Valve_Cylinder.001
v 0.886269 -0.000000 -0.413741
v 1.713751 0.000000 -0.413741
v 0.886269 -0.080717 -0.405791
v 1.713751 -0.080717 -0.405791
v 0.886269 -0.158332 -0.382247
v 1.713751 -0.158332 -0.382247
v 0.886269 -0.229862 -0.344013
v 1.713751 -0.229862 -0.344013
v 0.886269 -0.292559 -0.292559
v 1.713751 -0.292559 -0.292559
v 0.886269 -0.344013 -0.229862
v 1.713751 -0.344013 -0.229862
v 0.886269 -0.382247 -0.158332
v 1.713751 -0.382247 -0.158332
v 0.886269 -0.405791 -0.080717
v 1.713751 -0.405791 -0.080717
v 0.886269 -0.413741 -0.000000
v 1.713751 -0.413741 -0.000000
v 0.886269 -0.405791 0.080717
v 1.713751 -0.405791 0.080717
v 0.886269 -0.382247 0.158332
v 1.713751 -0.382247 0.158332
v 0.886269 -0.344013 0.229862
v 1.713751 -0.344013 0.229862
v 0.886269 -0.292559 0.292559
v 1.713751 -0.292559 0.292559
v 0.886269 -0.229862 0.344013
v 1.713751 -0.229862 0.344013
v 0.886269 -0.158332 0.382247
v 1.713751 -0.158332 0.382247
v 0.886269 -0.080717 0.405791
v 1.713751 -0.080717 0.405791
v 0.886269 0.000000 0.413741
v 1.713751 0.000000 0.413741
v 0.886269 0.080717 0.405791
v 1.713751 0.080717 0.405791
v 0.886269 0.158332 0.382247
v 1.713751 0.158332 0.382247
v 0.886269 0.229862 0.344013
v 1.713751 0.229862 0.344013
v 0.886269 0.292559 0.292559
v 1.713751 0.292559 0.292559
v 0.886269 0.344013 0.229862
v 1.713751 0.344013 0.229862
v 0.886269 0.382247 0.158332
v 1.713751 0.382247 0.158332
v 0.886269 0.405791 0.080717
v 1.713751 0.405791 0.080717
v 0.886269 0.413741 -0.000000
v 1.713751 0.413741 -0.000000
v 0.886269 0.405791 -0.080717
v 1.713751 0.405791 -0.080717
v 0.886269 0.382247 -0.158332
v 1.713751 0.382247 -0.158332
v 0.886269 0.344013 -0.229863
v 1.713751 0.344013 -0.229863
v 0.886269 0.292559 -0.292560
v 1.713751 0.292559 -0.292560
v 0.886269 0.229862 -0.344013
v 1.713751 0.229862 -0.344013
v 0.886269 0.158331 -0.382247
v 1.713751 0.158331 -0.382247
v 0.886269 0.080716 -0.405791
v 1.713751 0.080716 -0.405791
v 1.713751 0.264025 -0.649407
v 1.713751 0.517905 -0.611728
v 1.713751 0.751883 -0.550541
v 1.713751 0.956966 -0.468197
v 1.713751 1.125274 -0.367860
v 1.713751 1.250338 -0.253387
v 1.713751 1.327352 -0.129176
v 1.713751 1.353356 -0.000001
v 1.713751 1.327352 0.129174
v 1.713751 1.250339 0.253386
v 1.713751 1.125275 0.367859
v 1.713751 0.956968 0.468196
v 1.713751 0.751885 0.550541
v 1.713751 0.517908 0.611728
v 1.713751 0.264027 0.649407
v 1.713751 0.000001 0.662130
v 1.713751 -0.264026 0.649407
v 1.713751 -0.517907 0.611728
v 1.713751 -0.751884 0.550541
v 1.713751 -0.956967 0.468196
v 1.713751 -1.125275 0.367859
v 1.713751 -1.250338 0.253386
v 1.713751 -1.327352 0.129175
v 1.713751 -1.353356 -0.000000
v 1.713751 -1.327352 -0.129175
v 1.713751 -1.250338 -0.253386
v 1.713751 -1.125275 -0.367859
v 1.713751 -0.956967 -0.468196
v 1.713751 -0.751884 -0.550541
v 1.713751 -0.517907 -0.611728
v 1.713751 -0.264027 -0.649407
v 1.713751 -0.000000 -0.662130
v 1.713751 0.000000 -0.413741
v 1.713751 -0.080717 -0.405791
v 1.713751 -0.158332 -0.382247
v 1.713751 -0.229862 -0.344013
v 1.713751 -0.292559 -0.292559
v 1.713751 -0.344013 -0.229862
v 1.713751 -0.382247 -0.158332
v 1.713751 -0.405791 -0.080717
v 1.713751 -0.413741 -0.000000
v 1.713751 -0.405791 0.080717
v 1.713751 -0.382247 0.158332
v 1.713751 -0.344013 0.229862
v 1.713751 -0.292559 0.292559
v 1.713751 -0.229862 0.344013
v 1.713751 -0.158332 0.382247
v 1.713751 -0.080717 0.405791
v 1.713751 0.000000 0.413741
v 1.713751 0.080717 0.405791
v 1.713751 0.158332 0.382247
v 1.713751 0.229862 0.344013
v 1.713751 0.292559 0.292559
v 1.713751 0.344013 0.229862
v 1.713751 0.382247 0.158332
v 1.713751 0.405791 0.080717
v 1.713751 0.413741 -0.000000
v 1.713751 0.405791 -0.080717
v 1.713751 0.382247 -0.158332
v 1.713751 0.344013 -0.229863
v 1.713751 0.292559 -0.292560
v 1.713751 0.229862 -0.344013
v 1.713751 0.158331 -0.382247
v 1.713751 0.080716 -0.405791
v 2.164427 -0.000000 -0.594540
v 2.164427 -0.237075 -0.583116
v 2.164427 -0.465039 -0.549283
v 2.164427 -0.675133 -0.494342
v 2.164427 -0.859281 -0.420403
v 2.164427 -1.010408 -0.330309
v 2.164427 -1.122705 -0.227521
v 2.164427 -1.191857 -0.115989
v 2.164427 -1.215207 -0.000000
v 2.164427 -1.191857 0.115989
v 2.164427 -1.122705 0.227520
v 2.164427 -1.010408 0.330309
v 2.164427 -0.859281 0.420403
v 2.164427 -0.675133 0.494342
v 2.164427 -0.465039 0.549283
v 2.164427 -0.237075 0.583116
v 2.164427 0.000001 0.594540
v 2.164427 0.237076 0.583116
v 2.164427 0.465040 0.549283
v 2.164427 0.675133 0.494342
v 2.164427 0.859282 0.420403
v 2.164427 1.010408 0.330308
v 2.164427 1.122705 0.227520
v 2.164427 1.191857 0.115988
v 2.164427 1.215207 -0.000001
v 2.164427 1.191857 -0.115990
v 2.164427 1.122704 -0.227521
v 2.164427 1.010407 -0.330309
v 2.164427 0.859280 -0.420404
v 2.164427 0.675132 -0.494342
v 2.164427 0.465038 -0.549284
v 2.164427 0.237074 -0.583116
vt 1.000000 0.500000
vt 1.000000 1.000000
vt 0.968750 1.000000
vt 0.968750 0.500000
vt 0.937500 1.000000
vt 0.937500 0.500000
vt 0.906250 1.000000
vt 0.906250 0.500000
vt 0.875000 1.000000
vt 0.875000 0.500000
vt 0.843750 1.000000
vt 0.843750 0.500000
vt 0.812500 1.000000
vt 0.812500 0.500000
vt 0.781250 1.000000
vt 0.781250 0.500000
vt 0.750000 1.000000
vt 0.750000 0.500000
vt 0.718750 1.000000
vt 0.718750 0.500000
vt 0.687500 1.000000
vt 0.687500 0.500000
vt 0.656250 1.000000
vt 0.656250 0.500000
vt 0.625000 1.000000
vt 0.625000 0.500000
vt 0.593750 1.000000
vt 0.593750 0.500000
vt 0.562500 1.000000
vt 0.562500 0.500000
vt 0.531250 1.000000
vt 0.531250 0.500000
vt 0.500000 1.000000
vt 0.500000 0.500000
vt 0.468750 1.000000
vt 0.468750 0.500000
vt 0.437500 1.000000
vt 0.437500 0.500000
vt 0.406250 1.000000
vt 0.406250 0.500000
vt 0.375000 1.000000
vt 0.375000 0.500000
vt 0.343750 1.000000
vt 0.343750 0.500000
vt 0.312500 1.000000
vt 0.312500 0.500000
vt 0.281250 1.000000
vt 0.281250 0.500000
vt 0.250000 1.000000
vt 0.250000 0.500000
vt 0.218750 1.000000
vt 0.218750 0.500000
vt 0.187500 1.000000
vt 0.187500 0.500000
vt 0.156250 1.000000
vt 0.156250 0.500000
vt 0.125000 1.000000
vt 0.125000 0.500000
vt 0.093750 1.000000
vt 0.093750 0.500000
vt 0.062500 1.000000
vt 0.062500 0.500000
vt 0.000000 1.000000
vt 0.031250 1.000000
vt 0.031250 1.000000
vt 0.000000 1.000000
vt 0.031250 1.000000
vt 0.031250 0.500000
vt 0.000000 1.000000
vt 0.000000 0.500000
vt 0.750000 0.490000
vt 0.796822 0.485388
vt 0.841844 0.471731
vt 0.883337 0.449553
vt 0.919706 0.419706
vt 0.949553 0.383337
vt 0.971731 0.341844
vt 0.985388 0.296822
vt 0.990000 0.250000
vt 0.985388 0.203178
vt 0.971731 0.158156
vt 0.949553 0.116663
vt 0.919706 0.080294
vt 0.883337 0.050447
vt 0.841844 0.028269
vt 0.796822 0.014612
vt 0.750000 0.010000
vt 0.703178 0.014612
vt 0.658156 0.028269
vt 0.616663 0.050447
vt 0.580294 0.080294
vt 0.550447 0.116663
vt 0.528269 0.158156
vt 0.514611 0.203179
vt 0.510000 0.250000
vt 0.514612 0.296822
vt 0.528269 0.341844
vt 0.550447 0.383337
vt 0.580295 0.419706
vt 0.616663 0.449553
vt 0.658156 0.471731
vt 0.703179 0.485389
vt 1.000000 1.000000
vt 0.968750 1.000000
vt 0.312500 1.000000
vt 0.281250 1.000000
vt 0.593750 1.000000
vt 0.562500 1.000000
vt 0.875000 1.000000
vt 0.843750 1.000000
vt 0.187500 1.000000
vt 0.156250 1.000000
vt 0.468750 1.000000
vt 0.437500 1.000000
vt 0.750000 1.000000
vt 0.718750 1.000000
vt 0.062500 1.000000
vt 0.031250 1.000000
vt 0.343750 1.000000
vt 0.625000 1.000000
vt 0.906250 1.000000
vt 0.218750 1.000000
vt 0.500000 1.000000
vt 0.781250 1.000000
vt 0.093750 1.000000
vt 0.375000 1.000000
vt 0.656250 1.000000
vt 0.937500 1.000000
vt 0.250000 1.000000
vt 0.531250 1.000000
vt 0.812500 1.000000
vt 0.125000 1.000000
vt 0.406250 1.000000
vt 0.687500 1.000000
vt 0.000000 1.000000
vt 0.531250 1.000000
vt 0.500000 1.000000
vt 0.125000 1.000000
vt 0.093750 1.000000
vt 0.968750 1.000000
vt 0.937500 1.000000
vt 0.562500 1.000000
vt 0.156250 1.000000
vt 1.000000 1.000000
vt 0.593750 1.000000
vt 0.187500 1.000000
vt 0.625000 1.000000
vt 0.218750 1.000000
vt 0.656250 1.000000
vt 0.250000 1.000000
vt 0.687500 1.000000
vt 0.281250 1.000000
vt 0.718750 1.000000
vt 0.312500 1.000000
vt 0.750000 1.000000
vt 0.343750 1.000000
vt 0.781250 1.000000
vt 0.375000 1.000000
vt 0.812500 1.000000
vt 0.406250 1.000000
vt 0.843750 1.000000
vt 0.437500 1.000000
vt 0.875000 1.000000
vt 0.468750 1.000000
vt 0.062500 1.000000
vt 0.906250 1.000000
vt 0.296822 0.485388
vt 0.250000 0.490000
vt 0.203179 0.485389
vt 0.158156 0.471731
vt 0.116663 0.449553
vt 0.080295 0.419706
vt 0.050447 0.383337
vt 0.028269 0.341844
vt 0.014612 0.296822
vt 0.010000 0.250000
vt 0.014611 0.203179
vt 0.028269 0.158156
vt 0.050447 0.116663
vt 0.080294 0.080294
vt 0.116663 0.050447
vt 0.158156 0.028269
vt 0.203178 0.014612
vt 0.250000 0.010000
vt 0.296822 0.014612
vt 0.341844 0.028269
vt 0.383337 0.050447
vt 0.419706 0.080294
vt 0.449553 0.116663
vt 0.471731 0.158156
vt 0.485388 0.203178
vt 0.490000 0.250000
vt 0.485388 0.296822
vt 0.471731 0.341844
vt 0.449553 0.383337
vt 0.419706 0.419706
vt 0.383337 0.449553
vt 0.341844 0.471731
vt 0.718750 1.000000
vt 0.687500 1.000000
vt 0.437500 1.000000
vt 0.406250 1.000000
vt 0.156250 1.000000
vt 0.125000 1.000000
vt 0.843750 1.000000
vt 0.812500 1.000000
vt 0.562500 1.000000
vt 0.531250 1.000000
vt 0.281250 1.000000
vt 0.250000 1.000000
vt 0.968750 1.000000
vt 0.937500 1.000000
vt 0.656250 1.000000
vt 0.375000 1.000000
vt 0.093750 1.000000
vt 0.781250 1.000000
vt 0.500000 1.000000
vt 0.218750 1.000000
vt 0.906250 1.000000
vt 0.625000 1.000000
vt 0.343750 1.000000
vt 0.062500 1.000000
vt 0.750000 1.000000
vt 0.468750 1.000000
vt 0.187500 1.000000
vt 0.875000 1.000000
vt 0.593750 1.000000
vt 0.312500 1.000000
vt 1.000000 1.000000
vn 0.0000 -0.0980 -0.9952
vn 0.0000 -0.2903 -0.9569
vn 0.0000 -0.4714 -0.8819
vn 0.0000 -0.6344 -0.7730
vn 0.0000 -0.7730 -0.6344
vn 0.0000 -0.8819 -0.4714
vn 0.0000 -0.9569 -0.2903
vn 0.0000 -0.9952 -0.0980
vn 0.0000 -0.9952 0.0980
vn 0.0000 -0.9569 0.2903
vn 0.0000 -0.8819 0.4714
vn 0.0000 -0.7730 0.6344
vn 0.0000 -0.6344 0.7730
vn 0.0000 -0.4714 0.8819
vn 0.0000 -0.2903 0.9569
vn 0.0000 -0.0980 0.9952
vn -0.0000 0.0980 0.9952
vn -0.0000 0.2903 0.9569
vn -0.0000 0.4714 0.8819
vn -0.0000 0.6344 0.7730
vn -0.0000 0.7730 0.6344
vn -0.0000 0.8819 0.4714
vn -0.0000 0.9569 0.2903
vn -0.0000 0.9952 0.0980
vn -0.0000 0.9952 -0.0980
vn -0.0000 0.9569 -0.2903
vn -0.0000 0.8819 -0.4714
vn -0.0000 0.7730 -0.6344
vn -0.0000 0.6344 -0.7730
vn -0.0000 0.4714 -0.8819
vn 0.1481 0.0476 -0.9878
vn -0.0000 0.2903 -0.9569
vn -0.0000 0.0980 -0.9952
vn -1.0000 0.0000 0.0000
vn 0.0000 0.0000 1.0000
vn 1.0000 0.0000 -0.0000
vn 0.2615 -0.8203 0.5086
vn 0.1616 0.2497 0.9548
vn 0.1981 0.5019 -0.8419
vn 0.2274 -0.6575 -0.7183
vn 0.1525 -0.1451 0.9776
vn 0.2878 0.9389 0.1890
vn 0.1525 -0.1451 -0.9776
vn 0.2274 -0.6575 0.7183
vn 0.1764 0.3668 0.9134
vn 0.1764 0.3668 -0.9134
vn 0.2615 -0.8203 -0.5086
vn 0.1481 -0.0476 0.9878
vn 0.2878 0.9389 -0.1890
vn 0.1616 -0.2497 -0.9548
vn 0.1981 -0.5019 0.8419
vn 0.1981 0.5019 0.8419
vn 0.1616 0.2497 -0.9548
vn 0.2878 -0.9389 -0.1890
vn 0.1481 0.0476 0.9878
vn 0.2615 0.8203 -0.5086
vn 0.1764 -0.3668 -0.9134
vn 0.1764 -0.3668 0.9134
vn 0.2274 0.6575 0.7183
vn 0.1525 0.1451 -0.9776
vn 0.2878 -0.9389 0.1890
vn 0.1525 0.1451 0.9776
vn 0.2274 0.6575 -0.7183
vn 0.1981 -0.5019 -0.8419
vn 0.1616 -0.2497 0.9548
vn 0.2615 0.8203 0.5086
vn 0.1481 -0.0476 -0.9878
usemtl Material
s off
f 1/1/1 2/2/1 4/3/1 3/4/1
f 3/4/2 4/3/2 6/5/2 5/6/2
f 5/6/3 6/5/3 8/7/3 7/8/3
f 7/8/4 8/7/4 10/9/4 9/10/4
f 9/10/5 10/9/5 12/11/5 11/12/5
f 11/12/6 12/11/6 14/13/6 13/14/6
f 13/14/7 14/13/7 16/15/7 15/16/7
f 15/16/8 16/15/8 18/17/8 17/18/8
f 17/18/9 18/17/9 20/19/9 19/20/9
f 19/20/10 20/19/10 22/21/10 21/22/10
f 21/22/11 22/21/11 24/23/11 23/24/11
f 23/24/12 24/23/12 26/25/12 25/26/12
f 25/26/13 26/25/13 28/27/13 27/28/13
f 27/28/14 28/27/14 30/29/14 29/30/14
f 29/30/15 30/29/15 32/31/15 31/32/15
f 31/32/16 32/31/16 34/33/16 33/34/16
f 33/34/17 34/33/17 36/35/17 35/36/17
f 35/36/18 36/35/18 38/37/18 37/38/18
f 37/38/19 38/37/19 40/39/19 39/40/19
f 39/40/20 40/39/20 42/41/20 41/42/20
f 41/42/21 42/41/21 44/43/21 43/44/21
f 43/44/22 44/43/22 46/45/22 45/46/22
f 45/46/23 46/45/23 48/47/23 47/48/23
f 47/48/24 48/47/24 50/49/24 49/50/24
f 49/50/25 50/49/25 52/51/25 51/52/25
f 51/52/26 52/51/26 54/53/26 53/54/26
f 53/54/27 54/53/27 56/55/27 55/56/27
f 55/56/28 56/55/28 58/57/28 57/58/28
f 57/58/29 58/57/29 60/59/29 59/60/29
f 59/60/30 60/59/30 62/61/30 61/62/30
f 96/63/31 65/64/31 160/65/31 129/66/31
f 61/62/32 62/61/32 64/67/32 63/68/32
f 63/68/33 64/67/33 2/69/33 1/70/33
f 1/71/34 3/72/34 5/73/34 7/74/34 9/75/34 11/76/34 13/77/34 15/78/34 17/79/34 19/80/34 21/81/34 23/82/34 25/83/34 27/84/34 29/85/34 31/86/34 33/87/34 35/88/34 37/89/34 39/90/34 41/91/34 43/92/34 45/93/34 47/94/34 49/95/34 51/96/34 53/97/34 55/98/34 57/99/34 59/100/34 61/101/34 63/102/34
f 4/3/35 2/2/35 97/103/35 98/104/35
f 48/47/35 46/45/35 119/105/35 120/106/35
f 30/29/35 28/27/35 110/107/35 111/108/35
f 12/11/35 10/9/35 101/109/35 102/110/35
f 56/55/35 54/53/35 123/111/35 124/112/35
f 38/37/35 36/35/35 114/113/35 115/114/35
f 20/19/35 18/17/35 105/115/35 106/116/35
f 64/67/35 62/61/35 127/117/35 128/118/35
f 46/45/35 44/43/35 118/119/35 119/105/35
f 28/27/35 26/25/35 109/120/35 110/107/35
f 10/9/35 8/7/35 100/121/35 101/109/35
f 54/53/35 52/51/35 122/122/35 123/111/35
f 36/35/35 34/33/35 113/123/35 114/113/35
f 18/17/35 16/15/35 104/124/35 105/115/35
f 62/61/35 60/59/35 126/125/35 127/117/35
f 44/43/35 42/41/35 117/126/35 118/119/35
f 26/25/35 24/23/35 108/127/35 109/120/35
f 8/7/35 6/5/35 99/128/35 100/121/35
f 52/51/35 50/49/35 121/129/35 122/122/35
f 34/33/35 32/31/35 112/130/35 113/123/35
f 16/15/35 14/13/35 103/131/35 104/124/35
f 60/59/35 58/57/35 125/132/35 126/125/35
f 42/41/35 40/39/35 116/133/35 117/126/35
f 24/23/35 22/21/35 107/134/35 108/127/35
f 6/5/35 4/3/35 98/104/35 99/128/35
f 50/49/35 48/47/35 120/106/35 121/129/35
f 32/31/35 30/29/35 111/108/35 112/130/35
f 14/13/35 12/11/35 102/110/35 103/131/35
f 58/57/35 56/55/35 124/112/35 125/132/35
f 40/39/35 38/37/35 115/114/35 116/133/35
f 22/21/35 20/19/35 106/116/35 107/134/35
f 2/69/35 64/67/35 128/118/35 97/135/35
f 113/123/34 112/130/34 81/136/34 80/137/34
f 126/125/34 125/132/34 68/138/34 67/139/34
f 99/128/34 98/104/34 95/140/34 94/141/34
f 112/130/34 111/108/34 82/142/34 81/136/34
f 125/132/34 124/112/34 69/143/34 68/138/34
f 98/104/34 97/103/34 96/144/34 95/140/34
f 111/108/34 110/107/34 83/145/34 82/142/34
f 124/112/34 123/111/34 70/146/34 69/143/34
f 110/107/34 109/120/34 84/147/34 83/145/34
f 123/111/34 122/122/34 71/148/34 70/146/34
f 109/120/34 108/127/34 85/149/34 84/147/34
f 122/122/34 121/129/34 72/150/34 71/148/34
f 108/127/34 107/134/34 86/151/34 85/149/34
f 121/129/34 120/106/34 73/152/34 72/150/34
f 107/134/34 106/116/34 87/153/34 86/151/34
f 120/106/34 119/105/34 74/154/34 73/152/34
f 106/116/34 105/115/34 88/155/34 87/153/34
f 119/105/34 118/119/34 75/156/34 74/154/34
f 105/115/34 104/124/34 89/157/34 88/155/34
f 118/119/34 117/126/34 76/158/34 75/156/34
f 104/124/34 103/131/34 90/159/34 89/157/34
f 117/126/34 116/133/34 77/160/34 76/158/34
f 103/131/34 102/110/34 91/161/34 90/159/34
f 116/133/34 115/114/34 78/162/34 77/160/34
f 97/135/34 128/118/34 65/64/34 96/63/34
f 102/110/34 101/109/34 92/163/34 91/161/34
f 115/114/34 114/113/34 79/164/34 78/162/34
f 128/118/34 127/117/34 66/165/34 65/64/34
f 101/109/34 100/121/34 93/166/34 92/163/34
f 114/113/34 113/123/34 80/137/34 79/164/34
f 127/117/34 126/125/34 67/139/34 66/165/34
f 100/121/34 99/128/34 94/141/34 93/166/34
f 130/167/36 129/168/36 160/169/36 159/170/36 158/171/36 157/172/36 156/173/36 155/174/36 154/175/36 153/176/36 152/177/36 151/178/36 150/179/36 149/180/36 148/181/36 147/182/36 146/183/36 145/184/36 144/185/36 143/186/36 142/187/36 141/188/36 140/189/36 139/190/36 138/191/36 137/192/36 136/193/36 135/194/36 134/195/36 133/196/36 132/197/36 131/198/36
f 86/151/37 87/153/37 138/199/37 139/200/37
f 77/160/38 78/162/38 147/201/38 148/202/38
f 68/138/39 69/143/39 156/203/39 157/204/39
f 90/159/40 91/161/40 134/205/40 135/206/40
f 81/136/41 82/142/41 143/207/41 144/208/41
f 72/150/42 73/152/42 152/209/42 153/210/42
f 94/141/43 95/140/43 130/211/43 131/212/43
f 85/149/44 86/151/44 139/200/44 140/213/44
f 76/158/45 77/160/45 148/202/45 149/214/45
f 67/139/46 68/138/46 157/204/46 158/215/46
f 89/157/47 90/159/47 135/206/47 136/216/47
f 80/137/48 81/136/48 144/208/48 145/217/48
f 71/148/49 72/150/49 153/210/49 154/218/49
f 93/166/50 94/141/50 131/212/50 132/219/50
f 84/147/51 85/149/51 140/213/51 141/220/51
f 75/156/52 76/158/52 149/214/52 150/221/52
f 66/165/53 67/139/53 158/215/53 159/222/53
f 88/155/54 89/157/54 136/216/54 137/223/54
f 79/164/55 80/137/55 145/217/55 146/224/55
f 70/146/56 71/148/56 154/218/56 155/225/56
f 92/163/57 93/166/57 132/219/57 133/226/57
f 83/145/58 84/147/58 141/220/58 142/227/58
f 74/154/59 75/156/59 150/221/59 151/228/59
f 65/64/60 66/165/60 159/222/60 160/65/60
f 87/153/61 88/155/61 137/223/61 138/199/61
f 78/162/62 79/164/62 146/224/62 147/201/62
f 69/143/63 70/146/63 155/225/63 156/203/63
f 91/161/64 92/163/64 133/226/64 134/205/64
f 82/142/65 83/145/65 142/227/65 143/207/65
f 73/152/66 74/154/66 151/228/66 152/209/66
f 95/140/67 96/144/67 129/229/67 130/211/67
